<?xml version="1.0" encoding="UTF-8"?><svg id="Layer_1" xmlns="http://www.w3.org/2000/svg" viewBox="0 0 1000 1000"><path d="M432.25,333.67c1.85,38.68-8.6,75.85-17.73,113.04,20.46-2.98,42.47-6.58,63.27-4.53,9.83.97,14.03,6.1,23.15,6.75l-6.8-78.65c1.37-19.17.6-36.93,25.6-32.09,11.21,2.17,11.96,19.04,13.76,28.33,4.45,22.99,3.61,46.43,7.24,68.1.79,4.71-.17,9.61.1,14.33,17.15-2.28,32.3,5.9,48.32,10.42,6.71,1.89,14.68,1.67,20.84,3.54,10.43,3.16,21.23,12.49,32.43,15.21l.38,10.73-101.95-13.3,8.86,124.13c15.04-1.41,32.67-4.05,47.55-4.54,17.52-.57,36.22,1.89,52.91,1.47,42.22-1.05,87.35-11.1,127.9,4.54l-.34,9.36-25.35,6.77-202.7,11.19c-3.09,25.17,5.21,49.43,6.75,74.17,1.23,19.72.67,44.54,0,64.51-.35,10.2-.12,28.06-2.76,37.07-2.62,8.93-25.42,8.81-27.91.03l-15.97-169.13-120.86,26.53c-2.26,16.69,1.32,33.12,1.28,50.04-.02,11.56-2.47,24.69-2.4,37.68.07,13.23,12.76,70.89-19.87,55.31-4.58-2.19-10.62-25.88-11.01-31.27-.45-6.32,2.47-13.68,2.16-21.87-1.04-26.86-12.05-55.61-11.1-83.16l-65.35,13.32c-8.98-1.36-56.81,7.02-58.84-1.5.1-6.44-2.06-17.92,6.06-20.25l117.84-22.91c-.22-32.87.22-65.32,5.24-97.82.58-3.73,3.02-7.48,3.75-11.76,1.48-8.55-.45-16.39,4.59-25.31-8.72-2.11-17.13,6.72-23.84,8.27-12.48,2.89-43.02,8.74-54.64,7.04-14.81-2.17-20.88-9.7-16.84-24.84,1.68-6.29,20.49-7.28,24.96-8.78,14.94-5.02,31.46-13.32,45.95-18.33,12-4.14,27.81-4.49,39.44-12.65,4.11-39.93,19.26-75.66,32.04-113.14,4.03-9.48,15.5-5.31,23.89-6.05ZM503.16,475.55l-99.52,11.29c-15.41,46.29-24.29,94.61-22.35,143.86l128.55-26.61-6.67-128.53Z"/></svg>