<?xml version="1.0" encoding="UTF-8"?><svg id="Layer_1" xmlns="http://www.w3.org/2000/svg" viewBox="0 0 1000 1000"><path d="M463.1,747.09l1.13-144.09c-8.19-8.27-21.39-6.42-30.49-9.41-27.69-9.08-52.42-22.81-75.84-39.41-8.87-6.29-15.08-3.18-22.07-17.82-24.6-51.49-7.51-106.21,27.53-147.23,12.94-15.15,41.14-31.33,58.19-41.68,14.91-9.05,30.87-20.79,48.07-23.82,4.11-23.44-13.38-80.94,26.36-72.66.34,1.6,2.59,4.37,2.59,5.18v56.52c4.91-.06,9.35-2.15,14.31-2.32,39.83-1.34,79.14-.77,111.4,25.1,19.35,27.75,26.25,55.19,22.82,89.16-2.01,19.9-14.14,25.56-33.26,23.27v-34.36c0-4.21-4.46-24.5-6.19-29.27-11.69-32.21-56.23-34.12-85.76-31.65-4.73.4-19.57,1.96-20.79,5.8l.07,208.81c19.73,11.29,38.57,4.5,59.3,17.16,18.97,11.59,49.73,28.87,64.45,44.16,17.68,18.38,31.68,53.15,25.66,78.83-6.46,27.53-53.81,50.77-78.85,58.58-9.59,2.99-61.17,11.25-63.3,14.28-.31,32.94,2.07,65.83,1.33,98.85-.39,17.43-.65,42.89-2.24,59.69-1.36,14.43-7.59,20.11-22.28,15.61-9.42-4.81-12.37-56.51-13.35-68.65-.91-11.44,1.05-24,.05-35.52-1.81-20.88-7.99-43.88-8.94-65.3-25.15-1.91-53.21,2.42-78.01-.69-19.23-2.41-45.94-15.47-62.07-26.09-10.42-6.86-12.87-22.71-8.57-34.11,3.32-4.71,35.38,4.61,41.9,6.93,10.21,3.64,29.31,16.16,39.25,16.16h67.6ZM465.32,556.48v-188.4c-30.32,23.5-74.68,45.59-88.56,83.22-6.42,17.39-13.65,45.74-1.99,61.65,13.09,17.88,35.4,25.99,55.54,33.11,4.21,1.49,33.76,11.75,35.01,10.42ZM503.01,740.44c22.84-3.49,41.64-9.56,61.31-21.78,8.58-5.33,25.31-16.63,24.99-27.82-.76-26.07-36.77-50.99-57.46-62.36-10.17-5.59-21.03-10.88-32.15-14.4l3.31,126.36Z"/></svg>