<?xml version="1.0" encoding="UTF-8"?><svg id="Layer_1" xmlns="http://www.w3.org/2000/svg" viewBox="0 0 1000 1000"><path d="M549.04,518.43c-5.03,3.94-8.01,2.79-10.15,4.76-3.92,3.61-23.26,47.72-28.54,57.38-30.04,54.97-61.42,108.63-80.94,169.52-4.85,15.14-2.81,30.76-17.76,42.09-13.81,10.47-25.3,4.1-40.94,6.64-2.46-12.6-3.01-25.65.54-38.17,15.68-55.35,60.14-123.32,88.69-175.06,34.2-61.97,72.29-142.8,129.03-187.91,7.57-6.02,29.51-17.22,36.8-7.98,2.98,3.78.57,39.14-1.36,43.4-2.29,5.05-31.83,30.77-38.75,38.83-11.62,13.53-22.5,35.46-36.63,46.51ZM481.59,427.69c2.08-22.42,4.42-50.42-21.37-58.61-18.67-5.93-67.02-6.31-85.56.45-57.89,21.08-69.4,78.45-66.14,133.53,1.36,23.04,1.97,34.89,27.99,38.5,25.5,3.54,55.12-8.1,77.8-19.33,12.06-5.98,18.67-11.59,28.06-19.6,23.12-19.73,36.34-43.88,39.22-74.93ZM371.22,497c-7.54.68-14.1-8.07-22.69-6.28,3.3-23.83,6.01-53.19,21.49-72.5,8.98-11.21,50.23-30.95,61.53-18.26,3.75,4.21,7.8,24.01,7.92,29.98.39,20.08-28.04,42.67-43.46,52.94-4.9,3.26-19.41,13.64-24.79,14.12ZM703.01,711.17c5.27-36.1-10.11-75.96-51.9-74.1-20.76.92-52.67,15.66-68.7,28.87-23.57,19.44-45.17,79.51-41.19,109.76,1.54,11.71,12.98,12.61,19.37,19.41,4.64,4.93,6.13,15.22,16.09,18.28,8.55,2.63,43.77,1.77,52.93-.5,16.13-4,35.43-22.14,45.58-35.36,8.28-10.78,25.75-52.16,27.82-66.35ZM651.95,719.49c-6.62,13.59-30.9,42.12-46.7,46.83-14.68,4.37-14.14-2.52-26.23-5.17,5.32-26.66,24.54-51.67,45.82-68.3,4.59-3.59,27.13-19.64,31.65-15.79,4.86,16.99,2.86,27.24-4.55,42.44Z"/></svg>