<?xml version="1.0" encoding="UTF-8"?><svg id="Layer_1" xmlns="http://www.w3.org/2000/svg" viewBox="0 0 1000 1000"><path d="M522.47,493.67c-3.01,3.83-14.58,15.14-18.63,18.39-19.13,15.33-41.75,29.16-60.3,45.58-5.01,4.43-20.73,19.98-19.48,26.03,2.81,13.67,22.77,33.65,26.6,48.91,17.83,28.2,40.81,49.51,65.3,71.02,5.07,4.46,12.83,19.98,19.55,12.5,1.44-6.63,9.74-11.13,12.12-15.04,10.9-17.91,18.5-44.51,27.96-62.33,3.06-5.76,11.57-13.23,14.73-20.73,6.89-16.33,1.17-35.97,28.03-30.11,9.14,17.92,2.33,29-1.4,45.66-6.73,30.03-18.88,64.25-35.47,90.93-1.98,3.18-18.25,20.03-18.21,21.59l51.45,41.12c11.29,16.67,73.66,41.14,77.04,58.69,1.33,6.88-.83,16.16-8.21,18.31-17.68,5.14-39.36-16.38-54.08-24.78-15.97-9.12-35.39-17.12-50.59-27-15.84-10.3-29.26-23.37-45.74-32.07-3.81-.33-21.61,12.35-26.39,15.65-18.78,13-29.01,24.11-52.66,31.56-24.18,7.62-75.16,8.97-96.85-4.06-26.19-15.74-51.02-60.24-53.43-90.64-3.12-39.37.58-84.49,22.41-112.9,8.33-22.44,26.57-39.59,43.96-55.92-1.91-10.3-5.78-20.07-6.52-30.67-2.24-31.92,3.94-80.65,12.72-111.57,2.7-9.52,11-28.35,16.11-36.51,6.02-9.62,54.77-40.92,65.95-43.22,7.08-1.46,45.02-3.46,52.8-2.82,6.41.52,7.97.82,13.2,4.53,2.09,1.48,25.25,29.23,27.34,32.5,2.99,4.67,7.02,14.1,7.03,19.57.06,35.79-14.39,69.88-36.37,97.83ZM442.79,507.02c2.92-2.58,5.5-7.82,9.62-11.44,27.21-23.97,57.69-39.05,59.83-79.78.79-14.95-.04-26.29-9.09-38.52-9.35,4.11-19.61.52-29.17,2.46-7.53,1.53-37.74,19.13-44.59,24.21-21.59,15.99-32.28,68.29-25.52,93.25.43,1.6,3.54,1.65,4.04,3.45,2.71,9.67,2.41,21.52,2.43,31.54,11.25-7.49,22.36-16.23,32.45-25.16ZM425.14,674.72c-7.49-9.8-16.46-19.93-23.76-30.54l-10.98-25.55c-22.65,31.37-41.35,71.47-34.96,111.38,2.14,13.34,16,40.5,27.45,47.91,2.27,1.47,37.48,13.34,39.73,13.49,5,.34,24.11-5.77,29.15-8.33,8.45-4.29,21.44-11.67,30.05-16.5,7.32-4.1,13.25-11.12,21.61-13.88l-50.22-41.81c-9.76-11.47-18.92-24.21-28.08-36.19Z"/></svg>