<?xml version="1.0" encoding="UTF-8"?><svg id="Layer_1" xmlns="http://www.w3.org/2000/svg" viewBox="0 0 1000 1000"><path d="M498.46,290.11c-.73.28-9.6,10.27-10.59,11.51-78.36,98.26-90.29,266.66-62.28,385.31,13.64,57.8,30.39,93.36,79.71,128.64,10.87,7.77,45.77,23.74,48.18,36.09,3.76,19.28-11.26,17.35-25.22,16.32-28.36-2.1-54.98-8.08-75.95-29.34-35.39-35.87-64.79-78.95-73.34-129.48-14.81-87.6-13.34-218.73,8.91-304.7,9.34-36.1,46-111.62,73.32-136.14,13.48-12.1,35.91-23.43,53.21-11.55,5.95,4.08,13.51,29.3,9.31,35.3-6.47,7.48-22.15-3.18-25.25-1.97Z"/></svg>