<?xml version="1.0" encoding="UTF-8"?><svg id="Layer_1" xmlns="http://www.w3.org/2000/svg" viewBox="0 0 1000 1000"><path d="M486.17,259.01c2.81,3.06,4.49,7.84,7.42,11.44,47.09,58.04,78.53,103.5,102,177.26,25.79,81.07,33.1,218.28-7.04,294.51-22.81,43.32-56.92,86.66-88.47,123.82-3.52,4.14-24.52,23.28-27.6,23.86-3.26.62-12.33.76-15.55.23-9.64-1.57-11.98-16.08-8.68-24.46,7.19-18.26,34.32-40.37,46.35-55.55,99.53-125.54,102.99-334.78,6.55-465.24-18.9-25.57-45.18-61.55-68.51-82.23-2.94-2.6-7.77-3.24-9.44-4.94-4-4.08-4.09-23.68-.03-27.74,11.05-5.66,26.21-2.8,36.06,3.89,4.19,2.85,22.88,20.74,26.93,25.15Z"/></svg>