<?xml version="1.0" encoding="UTF-8"?><svg id="Layer_1" xmlns="http://www.w3.org/2000/svg" viewBox="0 0 1000 1000"><path d="M561.48,410.31c-1.3,2.16-12.42,15.19-14.19,16.29-6.39,3.96-13,5.18-20.48,4.43.17-5.5-.37-11.1.03-16.62,2.67-37.05,22.22-72.47,28.22-109.19,4.13-25.27,1.88-51.2,5.46-76.55,2.73-9.75,20.3-10.7,27.4-6.15,4.38,2.81,10.31,24.41,11.49,30.62,7.48,39.45-16.89,122.3-37.93,157.17ZM504.87,390.23c6.01-7.6-.98-31.92-1.18-42.34-.29-15.78.2-35.13.87-51.06.46-11.16,6.76-41.65,3.36-49.74-1.71-4.08-8.5-8.67-13.2-9.1-17.03-1.55-19.67,12.11-24.88,24.03-1.25,2.87-4.73,1.72-5.24,5.97-3.05,25.19-.2,81.68,7.42,105.89.47,1.49,8.1,16.06,8.83,16.67,3.98,3.31,20.19,4.53,24.02-.33Z"/></svg>